<?xml version="1.0" encoding="UTF-8" standalone="no"?>
<!-- Generator: Adobe Illustrator 16.0.4, SVG Export Plug-In . SVG Version: 6.00 Build 0)  -->

<svg
   xmlns:dc="http://purl.org/dc/elements/1.1/"
   xmlns:cc="http://creativecommons.org/ns#"
   xmlns:rdf="http://www.w3.org/1999/02/22-rdf-syntax-ns#"
   xmlns:svg="http://www.w3.org/2000/svg"
   xmlns="http://www.w3.org/2000/svg"
   xmlns:xlink="http://www.w3.org/1999/xlink"
   xmlns:sodipodi="http://sodipodi.sourceforge.net/DTD/sodipodi-0.dtd"
   xmlns:inkscape="http://www.inkscape.org/namespaces/inkscape"
   version="1.1"
   id="Calque_1"
   x="0px"
   y="0px"
   width="380"
   height="380"
   viewBox="0 40.445 380.00001 380"
   enable-background="new 0 40.445 595.279 621"
   xml:space="preserve"
   sodipodi:docname="logo.svg"
   inkscape:version="0.92.4 (5da689c313, 2019-01-14)"
   inkscape:export-filename="C:\dev\linqinfer\docs\logo.png"
   inkscape:export-xdpi="300.01855"
   inkscape:export-ydpi="300.01855"><metadata
   id="metadata3747"><rdf:RDF><cc:Work
       rdf:about=""><dc:format>image/svg+xml</dc:format><dc:type
         rdf:resource="http://purl.org/dc/dcmitype/StillImage" /><dc:title>12</dc:title></cc:Work></rdf:RDF></metadata><defs
   id="defs3745"><linearGradient
   inkscape:collect="always"
   id="linearGradient1220"><stop
     style="stop-color:#0036e8;stop-opacity:1;"
     offset="0"
     id="stop1216" /><stop
     style="stop-color:#0036e8;stop-opacity:0;"
     offset="1"
     id="stop1218" /></linearGradient><linearGradient
   inkscape:collect="always"
   id="linearGradient4677"><stop
     style="stop-color:#e80000;stop-opacity:1;"
     offset="0"
     id="stop4673" /><stop
     style="stop-color:#e80000;stop-opacity:0;"
     offset="1"
     id="stop4675" /></linearGradient><radialGradient
   inkscape:collect="always"
   xlink:href="#linearGradient1220"
   id="radialGradient4671"
   cx="393.5"
   cy="156.69501"
   fx="393.5"
   fy="156.69501"
   r="24.75"
   gradientTransform="matrix(1,0,0,0.96969697,-59.513456,-14.304445)"
   gradientUnits="userSpaceOnUse" /><radialGradient
   inkscape:collect="always"
   xlink:href="#linearGradient4677"
   id="radialGradient4679"
   cx="66"
   cy="347.44501"
   fx="66"
   fy="347.44501"
   r="24.75"
   gradientTransform="matrix(1,0,0,0.96969697,-18.865224,-226.31303)"
   gradientUnits="userSpaceOnUse" /><radialGradient
   inkscape:collect="always"
   xlink:href="#linearGradient4677"
   id="radialGradient4679-8"
   cx="66"
   cy="347.44501"
   fx="66"
   fy="347.44501"
   r="24.75"
   gradientTransform="matrix(1,0,0,0.96969697,-19.289325,-164.66942)"
   gradientUnits="userSpaceOnUse" /><radialGradient
   inkscape:collect="always"
   xlink:href="#linearGradient4677"
   id="radialGradient4679-1"
   cx="66"
   cy="347.44501"
   fx="66"
   fy="347.44501"
   r="24.75"
   gradientTransform="matrix(1,0,0,0.96969697,-19.289325,-100.66942)"
   gradientUnits="userSpaceOnUse" /><radialGradient
   inkscape:collect="always"
   xlink:href="#linearGradient4677"
   id="radialGradient4679-7"
   cx="66"
   cy="347.44501"
   fx="66"
   fy="347.44501"
   r="24.75"
   gradientTransform="matrix(1,0,0,0.96969697,-19.289325,-36.66942)"
   gradientUnits="userSpaceOnUse" /><radialGradient
   inkscape:collect="always"
   xlink:href="#linearGradient4677"
   id="radialGradient4679-81"
   cx="66"
   cy="347.44501"
   fx="66"
   fy="347.44501"
   r="24.75"
   gradientTransform="matrix(1,0,0,0.96969697,-19.289325,27.33058)"
   gradientUnits="userSpaceOnUse" />
	
<radialGradient
   inkscape:collect="always"
   xlink:href="#linearGradient1220"
   id="radialGradient4671-6"
   cx="393.5"
   cy="156.69501"
   fx="393.5"
   fy="156.69501"
   r="24.75"
   gradientTransform="matrix(1,0,0,0.96969697,-58.331394,79.700825)"
   gradientUnits="userSpaceOnUse" /><radialGradient
   inkscape:collect="always"
   xlink:href="#linearGradient1220"
   id="radialGradient1222"
   cx="333.75439"
   cy="327.1069"
   fx="333.75439"
   fy="327.1069"
   r="27.25"
   gradientTransform="matrix(1,0,0,0.97247706,0,9.0029423)"
   gradientUnits="userSpaceOnUse" /></defs><sodipodi:namedview
   pagecolor="#ffffff"
   bordercolor="#666666"
   borderopacity="1"
   objecttolerance="10"
   gridtolerance="10"
   guidetolerance="10"
   inkscape:pageopacity="0"
   inkscape:pageshadow="2"
   inkscape:window-width="1920"
   inkscape:window-height="1017"
   id="namedview3743"
   showgrid="false"
   inkscape:zoom="1.4142136"
   inkscape:cx="13.710981"
   inkscape:cy="136.66435"
   inkscape:window-x="-8"
   inkscape:window-y="-8"
   inkscape:window-maximized="1"
   inkscape:current-layer="g163"
   fit-margin-top="0"
   fit-margin-left="0"
   fit-margin-right="0"
   fit-margin-bottom="0" />
<title
   id="title3734">12</title>



<ellipse
   id="path3749-7"
   cx="333.98654"
   cy="137.64223"
   rx="22.25"
   ry="21.5"
   style="fill:url(#radialGradient4671);fill-opacity:1.0;stroke:#000000;stroke-width:10;stroke-miterlimit:4;stroke-dasharray:none;stroke-opacity:1" /><path
   style="fill:none;stroke:#000000;stroke-width:10;stroke-linecap:butt;stroke-linejoin:miter;stroke-miterlimit:4;stroke-dasharray:none;stroke-opacity:1"
   d="m 139.70776,135.35289 -74.085022,-23.1402 v 0"
   id="path4577"
   inkscape:connector-curvature="0" /><ellipse
   id="path3749-7-8"
   cx="47.134777"
   cy="110.60335"
   rx="22.25"
   ry="21.5"
   style="fill:url(#radialGradient4679);fill-opacity:1;stroke:#000000;stroke-width:10;stroke-miterlimit:4;stroke-dasharray:none;stroke-opacity:1" /><ellipse
   id="path3749-7-8-5"
   cx="46.710678"
   cy="172.24696"
   rx="22.25"
   ry="21.5"
   style="fill:url(#radialGradient4679-8);fill-opacity:1;stroke:#000000;stroke-width:10;stroke-miterlimit:4;stroke-dasharray:none;stroke-opacity:1" /><ellipse
   id="path3749-7-8-0"
   cx="46.710678"
   cy="236.24696"
   rx="22.25"
   ry="21.5"
   style="fill:url(#radialGradient4679-1);fill-opacity:1;stroke:#000000;stroke-width:10;stroke-miterlimit:4;stroke-dasharray:none;stroke-opacity:1" /><ellipse
   id="path3749-7-8-2"
   cx="46.710678"
   cy="300.24695"
   rx="22.25"
   ry="21.5"
   style="fill:url(#radialGradient4679-7);fill-opacity:1;stroke:#000000;stroke-width:10;stroke-miterlimit:4;stroke-dasharray:none;stroke-opacity:1" /><ellipse
   id="path3749-7-8-4"
   cx="46.710678"
   cy="364.24695"
   rx="22.25"
   ry="21.5"
   style="fill:url(#radialGradient4679-81);fill-opacity:1;stroke:#000000;stroke-width:10;stroke-miterlimit:4;stroke-dasharray:none;stroke-opacity:1" /><g
   id="g163"
   transform="matrix(14.982782,0,0,14.982782,76.527579,115.58966)">
		<path
   id="path157"
   d="M 8.472,0 7.192,0.003 C 5.172,0.259 3.513,1.107 2.521,2.389 1.685,3.47 1.36,4.78 1.553,6.283 c 0.37,2.87 2.773,6.848 4.674,8.486 0.475,0.41 1.081,0.794 1.353,0.899 0.129,0.044 0.224,0.073 0.333,0.073 0.11,0 0.217,-0.031 0.319,-0.091 1.234,-0.603 2.438,-1.88 3.788,-4.02 0.936,-1.485 2.032,-3.454 2.2,-5.495 C 14.492,2.843 12.295,0.492 8.472,0 Z M 8.435,0.69 c 3.431,0.447 5.337,2.462 5.097,5.391 -0.156,1.913 -1.271,3.875 -2.097,5.182 C 10.157,13.29 9.04,14.489 7.914,15.04 7.909,15.042 7.905,15.044 7.902,15.045 7.873,15.039 7.834,15.024 7.815,15.018 7.666,14.961 7.109,14.617 6.68,14.247 4.909,12.722 2.585,8.872 2.24,6.195 2.07,4.879 2.348,3.741 3.068,2.812 3.946,1.677 5.431,0.923 7.236,0.692 Z"
   style="fill:#030104"
   inkscape:connector-curvature="0" />
		<path
   id="path159"
   d="M 3.504,6.83 C 3.421,6.857 3.37,6.913 3.373,7.024 3.681,8.962 4.989,10.56 7.215,10.15 7.002,8.019 5.745,6.933 3.504,6.83 Z"
   style="fill:#030104"
   inkscape:connector-curvature="0" />
		<path
   id="path161"
   d="M 8.778,10.215 C 10.974,10.09 12.388,8.836 12.554,6.896 10.321,6.727 8.55,7.923 8.778,10.215 Z"
   style="fill:#030104"
   inkscape:connector-curvature="0" />
	</g><g
   id="g167"
   transform="matrix(14.982782,0,0,14.982782,76.527579,115.58966)">
</g><g
   id="g169"
   transform="matrix(14.982782,0,0,14.982782,76.527579,115.58966)">
</g><g
   id="g171"
   transform="matrix(14.982782,0,0,14.982782,76.527579,115.58966)">
</g><g
   id="g173"
   transform="matrix(14.982782,0,0,14.982782,76.527579,115.58966)">
</g><g
   id="g175"
   transform="matrix(14.982782,0,0,14.982782,76.527579,115.58966)">
</g><g
   id="g177"
   transform="matrix(14.982782,0,0,14.982782,76.527579,115.58966)">
</g><g
   id="g179"
   transform="matrix(14.982782,0,0,14.982782,76.527579,115.58966)">
</g><g
   id="g181"
   transform="matrix(14.982782,0,0,14.982782,76.527579,115.58966)">
</g><g
   id="g183"
   transform="matrix(14.982782,0,0,14.982782,76.527579,115.58966)">
</g><g
   id="g185"
   transform="matrix(14.982782,0,0,14.982782,76.527579,115.58966)">
</g><g
   id="g187"
   transform="matrix(14.982782,0,0,14.982782,76.527579,115.58966)">
</g><g
   id="g189"
   transform="matrix(14.982782,0,0,14.982782,76.527579,115.58966)">
</g><g
   id="g191"
   transform="matrix(14.982782,0,0,14.982782,76.527579,115.58966)">
</g><g
   id="g193"
   transform="matrix(14.982782,0,0,14.982782,76.527579,115.58966)">
</g><g
   id="g195"
   transform="matrix(14.982782,0,0,14.982782,76.527579,115.58966)">
</g><path
   style="fill:none;stroke:#000000;stroke-width:10;stroke-linecap:butt;stroke-linejoin:miter;stroke-miterlimit:4;stroke-dasharray:none;stroke-opacity:1"
   d="m 145.53917,303.25866 -81.067626,59.0102 v 0"
   id="path4577-5"
   inkscape:connector-curvature="0" /><path
   style="fill:none;stroke:#000000;stroke-width:10;stroke-linecap:butt;stroke-linejoin:miter;stroke-miterlimit:4;stroke-dasharray:none;stroke-opacity:1"
   d="m 122.7826,259.5542 -56.767696,39.64601 v 0"
   id="path4577-5-6"
   inkscape:connector-curvature="0" /><path
   style="fill:none;stroke:#000000;stroke-width:10;stroke-linecap:butt;stroke-linejoin:miter;stroke-miterlimit:4;stroke-dasharray:none;stroke-opacity:1"
   d="m 104.37898,218.82346 -38.345237,24.23385 v 0"
   id="path4577-5-6-2"
   inkscape:connector-curvature="0" /><path
   style="fill:none;stroke:#000000;stroke-width:10;stroke-linecap:butt;stroke-linejoin:miter;stroke-miterlimit:4;stroke-dasharray:none;stroke-opacity:1"
   d="m 108.20959,182.64604 -39.570954,-8.38447 v 0"
   id="path4577-5-6-2-0"
   inkscape:connector-curvature="0" /><ellipse
   id="path3749-7-1"
   cx="335.16858"
   cy="231.64749"
   rx="22.25"
   ry="21.5"
   style="fill:url(#radialGradient4671-6);fill-opacity:1.0;stroke:#000000;stroke-width:10;stroke-miterlimit:4;stroke-dasharray:none;stroke-opacity:1" /><ellipse
   id="path3749-7-1-3"
   cx="333.75439"
   cy="327.1069"
   rx="22.25"
   ry="21.5"
   style="fill:url(#radialGradient1222);fill-opacity:1;stroke:#000000;stroke-width:10;stroke-miterlimit:4;stroke-dasharray:none;stroke-opacity:1" /><path
   style="fill:none;stroke:#000000;stroke-width:10;stroke-linecap:butt;stroke-linejoin:miter;stroke-miterlimit:4;stroke-dasharray:none;stroke-opacity:1"
   d="m 315.56009,145.17768 -42.80734,18.08324 v 0"
   id="path4577-9"
   inkscape:connector-curvature="0" /><path
   style="fill:none;stroke:#000000;stroke-width:10;stroke-linecap:butt;stroke-linejoin:miter;stroke-miterlimit:4;stroke-dasharray:none;stroke-opacity:1"
   d="m 315.5702,226.74402 -30.79664,-9.30574 v 0"
   id="path4577-9-2"
   inkscape:connector-curvature="0" /><path
   style="fill:none;stroke:#000000;stroke-width:10;stroke-linecap:butt;stroke-linejoin:miter;stroke-miterlimit:4;stroke-dasharray:none;stroke-opacity:1"
   d="M 312.02718,315.56744 261.4364,277.8352 v 0"
   id="path4577-9-2-1"
   inkscape:connector-curvature="0" /></svg>